<svg width="118" height="24" viewBox="0 0 118 24" fill="none" xmlns="http://www.w3.org/2000/svg">
<path d="M13.3603 0.616699H17.33L14.2794 18.1016H10.3097L11.5244 11.1574H6.06523L4.85054 18.1016H0.880859L3.93144 0.616699H7.90112L6.73492 7.30984H12.1941L13.3603 0.616699Z" fill="#FCDC55"/>
<path d="M26.9828 5.61255H31.1003L24.7497 17.7272C23.6574 19.8009 22.4681 21.2493 21.1772 22.049C19.9117 22.8487 18.4222 23.1975 16.7365 23.0975L17.3322 19.601C18.2259 19.601 18.8956 19.4522 19.3667 19.1755C19.8378 18.9012 20.2858 18.3502 20.7061 17.5528L17.9511 5.61255H21.773L23.311 13.2565L26.9828 5.61255Z" fill="#FCDC55"/>
<path d="M43.7299 7.33754C44.649 8.71151 44.9446 10.2854 44.6721 12.1081C44.425 13.8075 43.6791 15.2791 42.4644 16.5531C41.2497 17.8271 39.7348 18.4525 37.8989 18.4525C36.2362 18.4525 35.0215 17.8527 34.2525 16.6787L33.1371 23.0975H29.4146L32.4651 5.61252H36.1877L36.0145 6.66102C37.0306 5.73807 38.2476 5.26147 39.7117 5.26147C41.4714 5.2638 42.8108 5.96357 43.7299 7.33754ZM35.1208 11.7314L35.0723 11.957C34.9476 12.8567 35.1208 13.5797 35.5688 14.1051C36.0145 14.6305 36.6611 14.9048 37.5294 14.9048C38.3977 14.9048 39.1413 14.6305 39.7625 14.0795C40.3837 13.5309 40.7809 12.7799 40.9541 11.857C41.2774 9.98318 40.3098 8.80915 38.5963 8.80915C36.9059 8.80915 35.4926 9.95993 35.1208 11.7314Z" fill="#FCDC55"/>
<path d="M58.0452 7.16097C59.1375 8.43497 59.5093 9.9833 59.1606 11.8571C59.0867 12.3825 58.9366 12.8823 58.7634 13.3566H49.8818C50.055 14.5306 50.9233 15.1049 52.4382 15.1049C53.4797 15.1049 54.348 14.7794 55.0431 14.1308L57.648 16.2789C56.2347 17.7273 54.3988 18.4526 52.1888 18.4526C50.0804 18.4526 48.4916 17.804 47.3993 16.4788C46.3325 15.156 45.9353 13.531 46.2586 11.6083C46.5311 9.78569 47.3739 8.28618 48.7895 7.08657C50.2028 5.86372 51.817 5.26392 53.6783 5.26392C55.5142 5.26392 56.9783 5.88697 58.0452 7.16097ZM55.6643 10.5087C55.5396 9.2347 54.796 8.58608 53.4312 8.58608C52.0664 8.58608 51.0503 9.2347 50.4037 10.5087H55.6643Z" fill="#FCDC55"/>
<path d="M65.5642 7.86063C66.2847 6.23791 67.8712 5.36377 69.7325 5.36377L69.012 9.60889C68.467 9.53449 67.9197 9.53449 67.3493 9.65771C66.257 9.88321 65.0423 10.8573 64.7698 12.4545L64.7952 12.3057L63.7791 18.1014H60.0565L62.2411 5.61253H65.9637L65.5642 7.86063Z" fill="#FCDC55"/>
<path d="M88.768 5.61252H92.4906L90.306 18.1014H86.5834L86.7312 17.2529C85.789 18.0526 84.5489 18.4525 83.0086 18.4525C81.0988 18.4525 79.734 17.7527 78.8657 16.3788C77.9974 14.9792 77.7504 13.3821 78.0968 11.5571C78.4201 9.83439 79.189 8.36046 80.4291 7.13528C81.6946 5.88685 83.2326 5.26147 85.0685 5.26147C86.6319 5.26147 87.7727 5.81013 88.5417 6.93535L88.768 5.61252ZM87.6757 11.857C87.999 9.98318 86.9806 8.80915 85.2694 8.80915C83.5582 8.80915 82.1426 9.98318 81.8216 11.857C81.5007 13.7308 82.4913 14.9048 84.2025 14.9048C85.9137 14.9048 87.3524 13.7052 87.6757 11.8826V11.857Z" fill="#FFFFFB"/>
<path d="M92.516 15.3791L95.8645 13.6796C96.2363 14.6282 96.9568 15.1024 98.0722 15.1024C98.915 15.1024 99.363 14.8769 99.4369 14.4538C99.5362 13.9284 98.5687 13.5797 97.3771 13.2542C95.6659 12.8288 93.4813 11.8547 94.0286 9.03233C94.4997 6.38436 97.0307 5.26147 99.2383 5.26147C101.423 5.26147 103.183 6.26115 103.977 7.93501L100.629 9.60888C100.331 8.88354 99.7856 8.50924 99.0167 8.50924C98.2731 8.50924 97.8505 8.758 97.7512 9.28341C97.6265 9.95761 98.571 10.2575 99.7603 10.5574C101.471 10.8829 103.681 11.757 103.134 14.7281C102.663 17.2506 100.555 18.4502 97.7512 18.4502C95.1948 18.4502 93.4328 17.4272 92.516 15.3791Z" fill="#FFFFFB"/>
<path d="M117.029 6.66111C117.798 7.58639 118.048 8.83481 117.773 10.432L116.433 18.0992H112.711L113.951 10.9806C114.223 9.45786 113.454 8.70694 112.163 8.70694C110.799 8.70694 109.732 9.5555 109.434 11.2805L108.242 18.0992H104.52L107.57 0.614258H111.293L110.226 6.78432C111.143 5.7614 112.36 5.26156 113.872 5.26156C115.216 5.26389 116.26 5.73816 117.029 6.66111Z" fill="#FFFFFB"/>
<path d="M75.4041 3.26222C74.0393 1.48839 72.2034 0.614258 69.9219 0.614258H62.9755L62.3081 4.43626L66.2755 4.46183H69.2522C72.0302 4.46183 73.5451 6.26124 73.0232 9.23235C72.7507 10.7551 72.1041 11.9547 71.0626 12.88C70.0212 13.8029 68.7557 14.254 67.2916 14.254H65.5365L64.8414 18.0992H66.8713C69.3769 18.0992 71.5614 17.2995 73.4204 15.7256C75.2817 14.1261 76.4225 12.0779 76.8451 9.60665C77.2631 7.13537 76.792 5.03606 75.4041 3.26222Z" fill="#FFFFFB"/>
<path d="M57.708 0.616699H56.9274H56.7796L56.1284 4.46194H56.2785H57.036H57.1861L57.8558 0.616699H57.708Z" fill="#FFFFFB"/>
<path d="M59.6178 0.616699H58.5717H58.3777L57.708 4.46194H57.8997H58.9689H59.1606L59.8118 0.616699H59.6178Z" fill="#FFFFFB"/>
<path d="M61.8115 0.616699H61.6175H60.7931H60.5714H60.3775L59.7078 4.46194H59.8994H60.1211H60.9686H61.1626H61.7954L62.4466 0.616699H61.8115Z" fill="#FFFFFB"/>
</svg>
